<?xml version="1.0" standalone="no"?><!DOCTYPE svg PUBLIC "-//W3C//DTD SVG 1.1//EN" "http://www.w3.org/Graphics/SVG/1.1/DTD/svg11.dtd"><svg t="1714044765567" class="icon" viewBox="0 0 1024 1024" version="1.1" xmlns="http://www.w3.org/2000/svg" p-id="1491" xmlns:xlink="http://www.w3.org/1999/xlink" width="200" height="200"><path d="M0 0m85.333333 0l853.333334 0q85.333333 0 85.333333 85.333333l0 853.333334q0 85.333333-85.333333 85.333333l-853.333334 0q-85.333333 0-85.333333-85.333333l0-853.333334q0-85.333333 85.333333-85.333333Z" fill="#FC6330" p-id="1492"></path><path d="M810.666667 256l-45.226667 287.573333c-1.237333 8.106667-4.352 15.402667-9.386667 21.888a78.378667 78.378667 0 0 1-18.346666 17.024c-7.253333 4.864-14.762667 8.618667-22.613334 11.349334a68.181333 68.181333 0 0 1-22.144 4.053333h-225.066666L436.821333 768H256L339.797333 279.466667 313.429333 256H810.666667z m-298.538667 77.781333l-33.877333 193.621334h109.226666l32.981334-193.621334h-108.330667z" fill="#FFFFFF" p-id="1493"></path></svg>